<svg xmlns="http://www.w3.org/2000/svg" viewBox="0 0 686.339 271.406" xmlns:xlink="http://www.w3.org/1999/xlink">
  <g data-name="404 light" transform="translate(-488.375 -461)">
    <g data-name="404 group" transform="translate(-444.133 -101)">
      <path data-name="4" d="M160.07,209.155l25.622,206.086h80.042v52.818H344.41V415.241h63.941V362.476H336.419V322.031H265.734v40.445H224.129l24.662-153.32Z" transform="translate(1210.496 360.345)" fill="#626262"/>
      <path data-name="4.1" d="M0,1.508,27.1,204.231l69.258-1.015L95.255,255.3l68.076-1,1.106-52.086,55.326-.811,1.1-52.034-62.241.912.847-39.885-61.161.9-.847,39.885-36,.527L76.711,0Z" transform="translate(936.963 569.447) rotate(1)" fill="#626262"/>
    </g>
    <g transform="translate(-444.133 -101)">
      <path id="bulb" data-name="0" d="M124,0c68.483,0,96.382,23.232,96.382,96.962,0,40.109-38.662,86.04-56.2,121.815-14.476,29.523-4.738,52.628-35.967,52.628-30.475,0-15.487-19.591-32.667-49.268C74.361,185.548,24.769,134,24.769,93.077,24.769,19.347,55.517,0,124,0Z" transform="translate(1133.133 562)" fill="#f1f83d"/>
      <animate xlink:href="#bulb" attributeName="fill" values="#f1f83d;#626262;#f1f83d" dur="3s" repeatCount="indefinite" />
      <g data-name="Ellipse 30" transform="translate(1218.133 677)" fill="#fff" stroke="#e6e4e4" stroke-width="1">
        <ellipse cx="7" cy="8" rx="7" ry="8" stroke="none"/>
        <ellipse cx="7" cy="8" rx="6.5" ry="7.5" fill="none"/>
      </g>
      <g data-name="Ellipse 31" transform="translate(1256.133 698)" fill="#fff" stroke="#e6e4e4" stroke-width="1">
        <ellipse cx="9.5" cy="10" rx="9.5" ry="10" stroke="none"/>
        <ellipse cx="9.5" cy="10" rx="9" ry="9.5" fill="none"/>
      </g>
      <path data-name="Path 10" d="M1225.133,693l16.9,58.244,8.542,70.947h16.542V717.307" fill="none" stroke="#e6e4e4" stroke-width="1"/>
    </g>
  </g>
</svg>